<mxfile host="app.diagrams.net" modified="2024-01-07T06:07:45.667Z" agent="Mozilla/5.0 (Windows NT 10.0; Win64; x64) AppleWebKit/537.36 (KHTML, like Gecko) Chrome/120.0.0.0 Safari/537.36" etag="3aBdeL_hlq2bRCu9HYK2" version="22.1.17" type="google" pages="6">
  <diagram name="er diagram" id="Z-pC-7EAjJBZavf70vSA">
    <mxGraphModel grid="1" page="1" gridSize="10" guides="1" tooltips="1" connect="1" arrows="1" fold="1" pageScale="1" pageWidth="850" pageHeight="1100" math="0" shadow="0">
      <root>
        <mxCell id="0" />
        <mxCell id="1" parent="0" />
        <mxCell id="1_fs0zdo_Wr3tfV-Bfau-2" value="" style="endArrow=none;html=1;rounded=0;exitX=1;exitY=0.5;exitDx=0;exitDy=0;entryX=0;entryY=0.5;entryDx=0;entryDy=0;" edge="1" parent="1" source="jN6FPUb6lgLRC94xXB41-5" target="1gjMFNONqH3cn2C8skRG-1">
          <mxGeometry width="50" height="50" relative="1" as="geometry">
            <mxPoint x="630" y="380" as="sourcePoint" />
            <mxPoint x="230" y="220" as="targetPoint" />
          </mxGeometry>
        </mxCell>
        <mxCell id="1gjMFNONqH3cn2C8skRG-1" value="&lt;font style=&quot;font-size: 22px;&quot;&gt;Patient&lt;br style=&quot;font-size: 22px;&quot;&gt;&lt;/font&gt;" style="rounded=0;whiteSpace=wrap;html=1;fontFamily=Times New Roman;fontSize=22;" vertex="1" parent="1">
          <mxGeometry x="220" y="180" width="150" height="50" as="geometry" />
        </mxCell>
        <mxCell id="1gjMFNONqH3cn2C8skRG-2" value="&lt;u&gt;Pid&lt;/u&gt;" style="ellipse;whiteSpace=wrap;html=1;fontFamily=Times New Roman;fontSize=22;" vertex="1" parent="1">
          <mxGeometry x="145" y="70" width="110" height="60" as="geometry" />
        </mxCell>
        <mxCell id="1gjMFNONqH3cn2C8skRG-3" value="&lt;font style=&quot;font-size: 22px;&quot;&gt;Pname&lt;/font&gt;" style="ellipse;whiteSpace=wrap;html=1;fontFamily=Times New Roman;fontSize=22;" vertex="1" parent="1">
          <mxGeometry x="255" y="40" width="110" height="60" as="geometry" />
        </mxCell>
        <mxCell id="1gjMFNONqH3cn2C8skRG-4" value="Admin" style="rounded=0;whiteSpace=wrap;html=1;fontFamily=Times New Roman;fontSize=22;" vertex="1" parent="1">
          <mxGeometry x="1055" y="780" width="150" height="50" as="geometry" />
        </mxCell>
        <mxCell id="1gjMFNONqH3cn2C8skRG-5" value="Medicine" style="rounded=0;whiteSpace=wrap;html=1;fontFamily=Times New Roman;fontSize=22;" vertex="1" parent="1">
          <mxGeometry x="1055" y="180" width="150" height="50" as="geometry" />
        </mxCell>
        <mxCell id="1gjMFNONqH3cn2C8skRG-7" value="Checks&lt;br&gt;Availability" style="strokeWidth=2;html=1;shape=mxgraph.flowchart.decision;whiteSpace=wrap;fontFamily=Times New Roman;fontSize=22;" vertex="1" parent="1">
          <mxGeometry x="1045" y="400" width="170" height="130" as="geometry" />
        </mxCell>
        <mxCell id="1gjMFNONqH3cn2C8skRG-8" value="Orders" style="strokeWidth=2;html=1;shape=mxgraph.flowchart.decision;whiteSpace=wrap;fontFamily=Times New Roman;fontSize=22;" vertex="1" parent="1">
          <mxGeometry x="590" y="125" width="170" height="160" as="geometry" />
        </mxCell>
        <mxCell id="1gjMFNONqH3cn2C8skRG-9" value="&lt;font style=&quot;font-size: 22px;&quot;&gt;&lt;span style=&quot;font-size: 22px;&quot;&gt;Address&lt;/span&gt;&lt;/font&gt;" style="ellipse;whiteSpace=wrap;html=1;fontFamily=Times New Roman;fontSize=22;" vertex="1" parent="1">
          <mxGeometry x="1275" y="860" width="110" height="60" as="geometry" />
        </mxCell>
        <mxCell id="1gjMFNONqH3cn2C8skRG-10" value="Username" style="ellipse;whiteSpace=wrap;html=1;fontFamily=Times New Roman;fontSize=22;" vertex="1" parent="1">
          <mxGeometry x="1275" y="695" width="110" height="60" as="geometry" />
        </mxCell>
        <mxCell id="1gjMFNONqH3cn2C8skRG-11" value="Email" style="ellipse;whiteSpace=wrap;html=1;fontFamily=Times New Roman;fontSize=22;" vertex="1" parent="1">
          <mxGeometry x="1285" y="775" width="110" height="60" as="geometry" />
        </mxCell>
        <mxCell id="1gjMFNONqH3cn2C8skRG-12" value="&lt;u&gt;Mid&lt;/u&gt;" style="ellipse;whiteSpace=wrap;html=1;fontFamily=Times New Roman;fontSize=22;" vertex="1" parent="1">
          <mxGeometry x="1275" y="240" width="110" height="60" as="geometry" />
        </mxCell>
        <mxCell id="1gjMFNONqH3cn2C8skRG-15" value="Mname" style="ellipse;whiteSpace=wrap;html=1;fontFamily=Times New Roman;fontSize=22;" vertex="1" parent="1">
          <mxGeometry x="1275" y="170" width="110" height="60" as="geometry" />
        </mxCell>
        <mxCell id="1gjMFNONqH3cn2C8skRG-16" value="Mft Date" style="ellipse;whiteSpace=wrap;html=1;fontFamily=Times New Roman;fontSize=22;" vertex="1" parent="1">
          <mxGeometry x="1250" y="100" width="110" height="60" as="geometry" />
        </mxCell>
        <mxCell id="1gjMFNONqH3cn2C8skRG-17" value="Batch no" style="ellipse;whiteSpace=wrap;html=1;fontFamily=Times New Roman;fontSize=22;" vertex="1" parent="1">
          <mxGeometry x="1150" y="65" width="110" height="60" as="geometry" />
        </mxCell>
        <mxCell id="1gjMFNONqH3cn2C8skRG-18" value="Exp Date&amp;nbsp;" style="ellipse;whiteSpace=wrap;html=1;fontFamily=Times New Roman;fontSize=22;" vertex="1" parent="1">
          <mxGeometry x="1040" y="50" width="110" height="60" as="geometry" />
        </mxCell>
        <mxCell id="1gjMFNONqH3cn2C8skRG-20" value="Password" style="ellipse;whiteSpace=wrap;html=1;fontFamily=Times New Roman;fontSize=22;" vertex="1" parent="1">
          <mxGeometry x="1165" y="900" width="110" height="60" as="geometry" />
        </mxCell>
        <mxCell id="1gjMFNONqH3cn2C8skRG-22" value="Price" style="ellipse;whiteSpace=wrap;html=1;fontFamily=Times New Roman;fontSize=22;" vertex="1" parent="1">
          <mxGeometry x="930" y="90" width="110" height="60" as="geometry" />
        </mxCell>
        <mxCell id="1gjMFNONqH3cn2C8skRG-23" value="" style="endArrow=none;html=1;rounded=0;entryX=0.5;entryY=1;entryDx=0;entryDy=0;exitX=0.596;exitY=0.024;exitDx=0;exitDy=0;exitPerimeter=0;" edge="1" parent="1" source="1gjMFNONqH3cn2C8skRG-1" target="1gjMFNONqH3cn2C8skRG-3">
          <mxGeometry width="50" height="50" relative="1" as="geometry">
            <mxPoint x="296" y="180" as="sourcePoint" />
            <mxPoint x="346" y="130" as="targetPoint" />
          </mxGeometry>
        </mxCell>
        <mxCell id="1gjMFNONqH3cn2C8skRG-24" value="" style="endArrow=none;html=1;rounded=0;exitX=0.25;exitY=0;exitDx=0;exitDy=0;" edge="1" parent="1" source="1gjMFNONqH3cn2C8skRG-1" target="1gjMFNONqH3cn2C8skRG-2">
          <mxGeometry width="50" height="50" relative="1" as="geometry">
            <mxPoint x="240" y="190" as="sourcePoint" />
            <mxPoint x="250" y="130" as="targetPoint" />
          </mxGeometry>
        </mxCell>
        <mxCell id="1gjMFNONqH3cn2C8skRG-25" value="" style="endArrow=none;html=1;rounded=0;entryX=0;entryY=0.5;entryDx=0;entryDy=0;exitX=1;exitY=0.5;exitDx=0;exitDy=0;entryPerimeter=0;" edge="1" parent="1" source="1gjMFNONqH3cn2C8skRG-1" target="1gjMFNONqH3cn2C8skRG-8">
          <mxGeometry width="50" height="50" relative="1" as="geometry">
            <mxPoint x="316" y="200" as="sourcePoint" />
            <mxPoint x="335" y="140" as="targetPoint" />
          </mxGeometry>
        </mxCell>
        <mxCell id="1gjMFNONqH3cn2C8skRG-39" value="" style="endArrow=none;html=1;rounded=0;entryX=1;entryY=1;entryDx=0;entryDy=0;exitX=0;exitY=0;exitDx=0;exitDy=0;" edge="1" parent="1" source="1gjMFNONqH3cn2C8skRG-12" target="1gjMFNONqH3cn2C8skRG-5">
          <mxGeometry width="50" height="50" relative="1" as="geometry">
            <mxPoint x="965" y="235" as="sourcePoint" />
            <mxPoint x="1085" y="235" as="targetPoint" />
          </mxGeometry>
        </mxCell>
        <mxCell id="1gjMFNONqH3cn2C8skRG-43" value="" style="endArrow=none;html=1;rounded=0;entryX=1;entryY=0.5;entryDx=0;entryDy=0;" edge="1" parent="1" source="1gjMFNONqH3cn2C8skRG-15" target="1gjMFNONqH3cn2C8skRG-5">
          <mxGeometry width="50" height="50" relative="1" as="geometry">
            <mxPoint x="1245" y="350" as="sourcePoint" />
            <mxPoint x="1164" y="239" as="targetPoint" />
          </mxGeometry>
        </mxCell>
        <mxCell id="1gjMFNONqH3cn2C8skRG-45" value="" style="endArrow=none;html=1;rounded=0;entryX=1;entryY=0;entryDx=0;entryDy=0;exitX=0;exitY=1;exitDx=0;exitDy=0;" edge="1" parent="1" source="1gjMFNONqH3cn2C8skRG-16" target="1gjMFNONqH3cn2C8skRG-5">
          <mxGeometry width="50" height="50" relative="1" as="geometry">
            <mxPoint x="1295" y="250" as="sourcePoint" />
            <mxPoint x="1174" y="249" as="targetPoint" />
          </mxGeometry>
        </mxCell>
        <mxCell id="1gjMFNONqH3cn2C8skRG-46" value="" style="endArrow=none;html=1;rounded=0;entryX=0.75;entryY=0;entryDx=0;entryDy=0;exitX=0.5;exitY=1;exitDx=0;exitDy=0;" edge="1" parent="1" source="1gjMFNONqH3cn2C8skRG-17" target="1gjMFNONqH3cn2C8skRG-5">
          <mxGeometry width="50" height="50" relative="1" as="geometry">
            <mxPoint x="1241" y="121" as="sourcePoint" />
            <mxPoint x="1145" y="180" as="targetPoint" />
          </mxGeometry>
        </mxCell>
        <mxCell id="1gjMFNONqH3cn2C8skRG-47" value="" style="endArrow=none;html=1;rounded=0;exitX=0.5;exitY=1;exitDx=0;exitDy=0;entryX=0.25;entryY=0;entryDx=0;entryDy=0;" edge="1" parent="1" source="1gjMFNONqH3cn2C8skRG-18" target="1gjMFNONqH3cn2C8skRG-5">
          <mxGeometry width="50" height="50" relative="1" as="geometry">
            <mxPoint x="1115" y="60" as="sourcePoint" />
            <mxPoint x="1135" y="170" as="targetPoint" />
          </mxGeometry>
        </mxCell>
        <mxCell id="1gjMFNONqH3cn2C8skRG-56" value="&lt;font style=&quot;font-size: 22px;&quot;&gt;1&lt;/font&gt;" style="text;html=1;strokeColor=none;fillColor=none;align=center;verticalAlign=middle;whiteSpace=wrap;rounded=0;fontSize=16;" vertex="1" parent="1">
          <mxGeometry x="350" y="180" width="60" height="30" as="geometry" />
        </mxCell>
        <mxCell id="1gjMFNONqH3cn2C8skRG-60" value="&lt;font style=&quot;font-size: 22px;&quot;&gt;m&lt;/font&gt;" style="text;html=1;strokeColor=none;fillColor=none;align=center;verticalAlign=middle;whiteSpace=wrap;rounded=0;fontSize=16;" vertex="1" parent="1">
          <mxGeometry x="1010" y="180" width="60" height="30" as="geometry" />
        </mxCell>
        <mxCell id="1gjMFNONqH3cn2C8skRG-62" value="m" style="text;html=1;strokeColor=none;fillColor=none;align=center;verticalAlign=middle;whiteSpace=wrap;rounded=0;fontSize=16;" vertex="1" parent="1">
          <mxGeometry x="1112" y="230" width="60" height="30" as="geometry" />
        </mxCell>
        <mxCell id="1gjMFNONqH3cn2C8skRG-59" value="&lt;font style=&quot;font-size: 22px;&quot;&gt;1&lt;/font&gt;" style="text;html=1;strokeColor=none;fillColor=none;align=center;verticalAlign=middle;whiteSpace=wrap;rounded=0;fontSize=16;" vertex="1" parent="1">
          <mxGeometry x="1112" y="755" width="60" height="30" as="geometry" />
        </mxCell>
        <mxCell id="ABi6NsNfqn0vt5H_SSBl-2" value="&lt;u&gt;Aid&lt;/u&gt;" style="ellipse;whiteSpace=wrap;html=1;fontFamily=Times New Roman;fontSize=22;" vertex="1" parent="1">
          <mxGeometry x="1040" y="900" width="110" height="60" as="geometry" />
        </mxCell>
        <mxCell id="jN6FPUb6lgLRC94xXB41-1" value="Contact No" style="ellipse;whiteSpace=wrap;html=1;fontFamily=Times New Roman;fontSize=22;" vertex="1" parent="1">
          <mxGeometry x="30" y="110" width="130" height="70" as="geometry" />
        </mxCell>
        <mxCell id="jN6FPUb6lgLRC94xXB41-5" value="&lt;font style=&quot;font-size: 22px;&quot;&gt;Address&lt;/font&gt;" style="ellipse;whiteSpace=wrap;html=1;fontFamily=Times New Roman;fontSize=22;" vertex="1" parent="1">
          <mxGeometry x="35" y="190" width="110" height="60" as="geometry" />
        </mxCell>
        <mxCell id="jN6FPUb6lgLRC94xXB41-7" value="" style="endArrow=none;html=1;rounded=0;entryX=0;entryY=0;entryDx=0;entryDy=0;" edge="1" parent="1" source="jN6FPUb6lgLRC94xXB41-1" target="1gjMFNONqH3cn2C8skRG-1">
          <mxGeometry width="50" height="50" relative="1" as="geometry">
            <mxPoint x="157.5" y="200" as="sourcePoint" />
            <mxPoint x="195" y="200" as="targetPoint" />
            <Array as="points" />
          </mxGeometry>
        </mxCell>
        <mxCell id="fowWI_c0DFzFgWEHwGOX-1" value="" style="endArrow=none;html=1;rounded=0;entryX=0;entryY=0.5;entryDx=0;entryDy=0;exitX=1;exitY=0.5;exitDx=0;exitDy=0;exitPerimeter=0;" edge="1" parent="1" source="1gjMFNONqH3cn2C8skRG-8" target="1gjMFNONqH3cn2C8skRG-5">
          <mxGeometry width="50" height="50" relative="1" as="geometry">
            <mxPoint x="740" y="200" as="sourcePoint" />
            <mxPoint x="790" y="150" as="targetPoint" />
          </mxGeometry>
        </mxCell>
        <mxCell id="1_fs0zdo_Wr3tfV-Bfau-3" value="" style="endArrow=none;html=1;rounded=0;entryX=0;entryY=0;entryDx=0;entryDy=0;exitX=1;exitY=1;exitDx=0;exitDy=0;" edge="1" parent="1" source="1gjMFNONqH3cn2C8skRG-22" target="1gjMFNONqH3cn2C8skRG-5">
          <mxGeometry width="50" height="50" relative="1" as="geometry">
            <mxPoint x="620" y="380" as="sourcePoint" />
            <mxPoint x="670" y="330" as="targetPoint" />
          </mxGeometry>
        </mxCell>
        <mxCell id="fowWI_c0DFzFgWEHwGOX-2" value="" style="endArrow=none;html=1;rounded=0;entryX=0.5;entryY=1;entryDx=0;entryDy=0;entryPerimeter=0;exitX=0.5;exitY=0;exitDx=0;exitDy=0;" edge="1" parent="1" source="1gjMFNONqH3cn2C8skRG-4" target="1gjMFNONqH3cn2C8skRG-7">
          <mxGeometry width="50" height="50" relative="1" as="geometry">
            <mxPoint x="650" y="700" as="sourcePoint" />
            <mxPoint x="700" y="650" as="targetPoint" />
          </mxGeometry>
        </mxCell>
        <mxCell id="fowWI_c0DFzFgWEHwGOX-3" value="" style="endArrow=none;html=1;rounded=0;entryX=0.5;entryY=1;entryDx=0;entryDy=0;exitX=0.5;exitY=0;exitDx=0;exitDy=0;exitPerimeter=0;" edge="1" parent="1" source="1gjMFNONqH3cn2C8skRG-7" target="1gjMFNONqH3cn2C8skRG-5">
          <mxGeometry width="50" height="50" relative="1" as="geometry">
            <mxPoint x="560" y="420" as="sourcePoint" />
            <mxPoint x="610" y="370" as="targetPoint" />
          </mxGeometry>
        </mxCell>
        <mxCell id="fowWI_c0DFzFgWEHwGOX-4" value="" style="endArrow=none;html=1;rounded=0;entryX=0.5;entryY=0;entryDx=0;entryDy=0;exitX=0.25;exitY=1;exitDx=0;exitDy=0;" edge="1" parent="1" source="1gjMFNONqH3cn2C8skRG-4" target="ABi6NsNfqn0vt5H_SSBl-2">
          <mxGeometry width="50" height="50" relative="1" as="geometry">
            <mxPoint x="1190" y="780" as="sourcePoint" />
            <mxPoint x="1240" y="730" as="targetPoint" />
          </mxGeometry>
        </mxCell>
        <mxCell id="fowWI_c0DFzFgWEHwGOX-5" value="" style="endArrow=none;html=1;rounded=0;entryX=0;entryY=1;entryDx=0;entryDy=0;exitX=1;exitY=0;exitDx=0;exitDy=0;" edge="1" parent="1" source="1gjMFNONqH3cn2C8skRG-4" target="1gjMFNONqH3cn2C8skRG-10">
          <mxGeometry width="50" height="50" relative="1" as="geometry">
            <mxPoint x="1230" y="800" as="sourcePoint" />
            <mxPoint x="1280" y="750" as="targetPoint" />
          </mxGeometry>
        </mxCell>
        <mxCell id="fowWI_c0DFzFgWEHwGOX-6" value="" style="endArrow=none;html=1;rounded=0;entryX=0;entryY=0.5;entryDx=0;entryDy=0;exitX=1;exitY=0.5;exitDx=0;exitDy=0;" edge="1" parent="1" source="1gjMFNONqH3cn2C8skRG-4" target="1gjMFNONqH3cn2C8skRG-11">
          <mxGeometry width="50" height="50" relative="1" as="geometry">
            <mxPoint x="1210" y="805" as="sourcePoint" />
            <mxPoint x="1270" y="790" as="targetPoint" />
          </mxGeometry>
        </mxCell>
        <mxCell id="fowWI_c0DFzFgWEHwGOX-7" value="" style="endArrow=none;html=1;rounded=0;entryX=1;entryY=1;entryDx=0;entryDy=0;exitX=0;exitY=0;exitDx=0;exitDy=0;" edge="1" parent="1" source="1gjMFNONqH3cn2C8skRG-9" target="1gjMFNONqH3cn2C8skRG-4">
          <mxGeometry width="50" height="50" relative="1" as="geometry">
            <mxPoint x="1220" y="860" as="sourcePoint" />
            <mxPoint x="1270" y="810" as="targetPoint" />
          </mxGeometry>
        </mxCell>
        <mxCell id="fowWI_c0DFzFgWEHwGOX-8" value="" style="endArrow=none;html=1;rounded=0;entryX=0.75;entryY=1;entryDx=0;entryDy=0;exitX=0.5;exitY=0;exitDx=0;exitDy=0;" edge="1" parent="1" source="1gjMFNONqH3cn2C8skRG-20" target="1gjMFNONqH3cn2C8skRG-4">
          <mxGeometry width="50" height="50" relative="1" as="geometry">
            <mxPoint x="1020" y="940" as="sourcePoint" />
            <mxPoint x="1070" y="890" as="targetPoint" />
          </mxGeometry>
        </mxCell>
        <mxCell id="Fsa0LkLwNNndcIA4m146-1" value="&lt;font style=&quot;font-size: 22px;&quot;&gt;Bill&lt;/font&gt;" style="rounded=0;whiteSpace=wrap;html=1;" vertex="1" parent="1">
          <mxGeometry x="250" y="775" width="120" height="60" as="geometry" />
        </mxCell>
        <mxCell id="RvZ6fd-cLDd9Ig5iNmFe-1" value="&lt;font style=&quot;font-size: 22px;&quot;&gt;Bno&lt;/font&gt;" style="ellipse;whiteSpace=wrap;html=1;" vertex="1" parent="1">
          <mxGeometry x="155" y="900" width="120" height="80" as="geometry" />
        </mxCell>
        <mxCell id="RvZ6fd-cLDd9Ig5iNmFe-2" value="&lt;font style=&quot;font-size: 22px;&quot;&gt;Amount&lt;/font&gt;" style="ellipse;whiteSpace=wrap;html=1;" vertex="1" parent="1">
          <mxGeometry x="70" y="740" width="120" height="80" as="geometry" />
        </mxCell>
        <mxCell id="RvZ6fd-cLDd9Ig5iNmFe-3" value="&lt;font style=&quot;font-size: 22px;&quot;&gt;Date&lt;/font&gt;" style="ellipse;whiteSpace=wrap;html=1;" vertex="1" parent="1">
          <mxGeometry x="70" y="830" width="120" height="80" as="geometry" />
        </mxCell>
        <mxCell id="RvZ6fd-cLDd9Ig5iNmFe-4" value="&lt;font style=&quot;font-size: 22px;&quot;&gt;Status&lt;/font&gt;" style="ellipse;whiteSpace=wrap;html=1;" vertex="1" parent="1">
          <mxGeometry x="280" y="910" width="120" height="80" as="geometry" />
        </mxCell>
        <mxCell id="RvZ6fd-cLDd9Ig5iNmFe-5" value="" style="endArrow=none;html=1;rounded=0;exitX=0;exitY=0.25;exitDx=0;exitDy=0;entryX=1;entryY=0.5;entryDx=0;entryDy=0;" edge="1" parent="1" source="Fsa0LkLwNNndcIA4m146-1" target="RvZ6fd-cLDd9Ig5iNmFe-2">
          <mxGeometry width="50" height="50" relative="1" as="geometry">
            <mxPoint x="450" y="880" as="sourcePoint" />
            <mxPoint x="500" y="830" as="targetPoint" />
          </mxGeometry>
        </mxCell>
        <mxCell id="RvZ6fd-cLDd9Ig5iNmFe-6" value="" style="endArrow=none;html=1;rounded=0;exitX=0;exitY=1;exitDx=0;exitDy=0;" edge="1" parent="1" source="Fsa0LkLwNNndcIA4m146-1" target="RvZ6fd-cLDd9Ig5iNmFe-3">
          <mxGeometry width="50" height="50" relative="1" as="geometry">
            <mxPoint x="260" y="850" as="sourcePoint" />
            <mxPoint x="200" y="850" as="targetPoint" />
          </mxGeometry>
        </mxCell>
        <mxCell id="RvZ6fd-cLDd9Ig5iNmFe-7" value="" style="endArrow=none;html=1;rounded=0;exitX=0.5;exitY=0;exitDx=0;exitDy=0;entryX=0.25;entryY=1;entryDx=0;entryDy=0;" edge="1" parent="1" source="RvZ6fd-cLDd9Ig5iNmFe-1" target="Fsa0LkLwNNndcIA4m146-1">
          <mxGeometry width="50" height="50" relative="1" as="geometry">
            <mxPoint x="270" y="860" as="sourcePoint" />
            <mxPoint x="210" y="860" as="targetPoint" />
          </mxGeometry>
        </mxCell>
        <mxCell id="RvZ6fd-cLDd9Ig5iNmFe-8" value="" style="endArrow=none;html=1;rounded=0;exitX=0.5;exitY=0;exitDx=0;exitDy=0;entryX=0.75;entryY=1;entryDx=0;entryDy=0;" edge="1" parent="1" source="RvZ6fd-cLDd9Ig5iNmFe-4" target="Fsa0LkLwNNndcIA4m146-1">
          <mxGeometry width="50" height="50" relative="1" as="geometry">
            <mxPoint x="280" y="870" as="sourcePoint" />
            <mxPoint x="220" y="870" as="targetPoint" />
          </mxGeometry>
        </mxCell>
        <mxCell id="RvZ6fd-cLDd9Ig5iNmFe-9" value="&lt;font style=&quot;font-size: 22px;&quot;&gt;Verifies&lt;/font&gt;" style="strokeWidth=2;html=1;shape=mxgraph.flowchart.decision;whiteSpace=wrap;fontFamily=Times New Roman;fontSize=22;" vertex="1" parent="1">
          <mxGeometry x="620" y="731.25" width="160" height="147.5" as="geometry" />
        </mxCell>
        <mxCell id="RvZ6fd-cLDd9Ig5iNmFe-10" value="" style="endArrow=none;html=1;rounded=0;entryX=0;entryY=0.5;entryDx=0;entryDy=0;exitX=1;exitY=0.5;exitDx=0;exitDy=0;" edge="1" parent="1" source="RvZ6fd-cLDd9Ig5iNmFe-9" target="1gjMFNONqH3cn2C8skRG-4">
          <mxGeometry width="50" height="50" relative="1" as="geometry">
            <mxPoint x="760" y="930" as="sourcePoint" />
            <mxPoint x="810" y="880" as="targetPoint" />
          </mxGeometry>
        </mxCell>
        <mxCell id="RvZ6fd-cLDd9Ig5iNmFe-11" value="" style="endArrow=none;html=1;rounded=0;exitX=1;exitY=0.5;exitDx=0;exitDy=0;entryX=0;entryY=0.5;entryDx=0;entryDy=0;" edge="1" parent="1" source="Fsa0LkLwNNndcIA4m146-1" target="RvZ6fd-cLDd9Ig5iNmFe-9">
          <mxGeometry width="50" height="50" relative="1" as="geometry">
            <mxPoint x="760" y="930" as="sourcePoint" />
            <mxPoint x="810" y="880" as="targetPoint" />
          </mxGeometry>
        </mxCell>
        <mxCell id="1_fs0zdo_Wr3tfV-Bfau-5" value="" style="endArrow=none;html=1;rounded=0;exitX=0.5;exitY=0;exitDx=0;exitDy=0;exitPerimeter=0;" edge="1" parent="1" source="1_fs0zdo_Wr3tfV-Bfau-6">
          <mxGeometry width="50" height="50" relative="1" as="geometry">
            <mxPoint x="-259" y="420" as="sourcePoint" />
            <mxPoint x="311" y="230" as="targetPoint" />
          </mxGeometry>
        </mxCell>
        <mxCell id="1_fs0zdo_Wr3tfV-Bfau-7" value="" style="endArrow=none;html=1;rounded=0;entryX=0.5;entryY=1;entryDx=0;entryDy=0;entryPerimeter=0;exitX=0.5;exitY=0;exitDx=0;exitDy=0;" edge="1" parent="1" source="Fsa0LkLwNNndcIA4m146-1" target="1_fs0zdo_Wr3tfV-Bfau-6">
          <mxGeometry width="50" height="50" relative="1" as="geometry">
            <mxPoint x="311" y="770" as="sourcePoint" />
            <mxPoint x="-119" y="650" as="targetPoint" />
          </mxGeometry>
        </mxCell>
        <mxCell id="1_fs0zdo_Wr3tfV-Bfau-6" value="Pays&lt;br&gt;bill" style="strokeWidth=2;html=1;shape=mxgraph.flowchart.decision;whiteSpace=wrap;fontFamily=Times New Roman;fontSize=22;" vertex="1" parent="1">
          <mxGeometry x="226" y="400" width="170" height="130" as="geometry" />
        </mxCell>
        <mxCell id="RvZ6fd-cLDd9Ig5iNmFe-13" value="&lt;font style=&quot;font-size: 22px;&quot;&gt;1&lt;br&gt;&lt;/font&gt;" style="text;html=1;align=center;verticalAlign=middle;resizable=0;points=[];autosize=1;strokeColor=none;fillColor=none;" vertex="1" parent="1">
          <mxGeometry x="275" y="225" width="40" height="40" as="geometry" />
        </mxCell>
        <mxCell id="RvZ6fd-cLDd9Ig5iNmFe-14" value="&lt;font style=&quot;font-size: 22px;&quot;&gt;1&lt;br&gt;&lt;/font&gt;" style="text;html=1;align=center;verticalAlign=middle;resizable=0;points=[];autosize=1;strokeColor=none;fillColor=none;" vertex="1" parent="1">
          <mxGeometry x="275" y="740" width="40" height="40" as="geometry" />
        </mxCell>
        <mxCell id="RvZ6fd-cLDd9Ig5iNmFe-15" value="&lt;font style=&quot;font-size: 22px;&quot;&gt;m&lt;/font&gt;" style="text;html=1;align=center;verticalAlign=middle;resizable=0;points=[];autosize=1;strokeColor=none;fillColor=none;" vertex="1" parent="1">
          <mxGeometry x="370" y="775" width="40" height="40" as="geometry" />
        </mxCell>
        <mxCell id="RvZ6fd-cLDd9Ig5iNmFe-16" value="&lt;font style=&quot;font-size: 22px;&quot;&gt;1&lt;/font&gt;" style="text;html=1;align=center;verticalAlign=middle;resizable=0;points=[];autosize=1;strokeColor=none;fillColor=none;" vertex="1" parent="1">
          <mxGeometry x="1015" y="775" width="40" height="40" as="geometry" />
        </mxCell>
        <mxCell id="CA6NZpMCaeqy43iF8LRk-1" value="" style="swimlane;startSize=0;" vertex="1" parent="1">
          <mxGeometry x="10" y="10" width="1410" height="1010" as="geometry" />
        </mxCell>
      </root>
    </mxGraphModel>
  </diagram>
  <diagram name="usecase" id="7MZtIlOC3XiG28vScsgd">
    <mxGraphModel grid="1" page="1" gridSize="10" guides="1" tooltips="1" connect="1" arrows="1" fold="1" pageScale="1" pageWidth="850" pageHeight="1100" math="0" shadow="0">
      <root>
        <mxCell id="0" />
        <mxCell id="1" parent="0" />
        <mxCell id="p-NeD2oOt9-igyjchaBP-9" value="" style="endArrow=none;html=1;rounded=0;exitX=1;exitY=0.5;exitDx=0;exitDy=0;" edge="1" parent="1" source="p-NeD2oOt9-igyjchaBP-1">
          <mxGeometry width="50" height="50" relative="1" as="geometry">
            <mxPoint x="740" y="410" as="sourcePoint" />
            <mxPoint x="1215.7142857142858" y="560" as="targetPoint" />
          </mxGeometry>
        </mxCell>
        <mxCell id="p-NeD2oOt9-igyjchaBP-2" value="" style="endArrow=classic;dashed=1;html=1;exitX=0.5;exitY=1;exitDx=0;exitDy=0;" edge="1" parent="1" target="p-NeD2oOt9-igyjchaBP-1">
          <mxGeometry width="50" height="50" relative="1" as="geometry">
            <mxPoint x="688" y="340" as="sourcePoint" />
            <mxPoint x="688" y="390" as="targetPoint" />
            <Array as="points" />
          </mxGeometry>
        </mxCell>
        <mxCell id="9PnEpaF84pntTJBBmQTI-3" value="Medicines&lt;br&gt;Record" style="ellipse;whiteSpace=wrap;html=1;" vertex="1" parent="1">
          <mxGeometry x="875" y="475" width="115" height="60" as="geometry" />
        </mxCell>
        <mxCell id="9PnEpaF84pntTJBBmQTI-4" value="Search&lt;br&gt;Medicine" style="ellipse;whiteSpace=wrap;html=1;" vertex="1" parent="1">
          <mxGeometry x="270" y="520" width="115" height="60" as="geometry" />
        </mxCell>
        <mxCell id="9PnEpaF84pntTJBBmQTI-5" value="View&amp;nbsp;&lt;br&gt;Product" style="ellipse;whiteSpace=wrap;html=1;" vertex="1" parent="1">
          <mxGeometry x="465" y="525" width="115" height="60" as="geometry" />
        </mxCell>
        <mxCell id="9PnEpaF84pntTJBBmQTI-6" value="Login" style="ellipse;whiteSpace=wrap;html=1;" vertex="1" parent="1">
          <mxGeometry x="630" y="290" width="115" height="60" as="geometry" />
        </mxCell>
        <mxCell id="9PnEpaF84pntTJBBmQTI-8" value="Patients&lt;br&gt;Records" style="ellipse;whiteSpace=wrap;html=1;" vertex="1" parent="1">
          <mxGeometry x="605" y="490" width="115" height="60" as="geometry" />
        </mxCell>
        <mxCell id="9PnEpaF84pntTJBBmQTI-9" value="Register" style="ellipse;whiteSpace=wrap;html=1;" vertex="1" parent="1">
          <mxGeometry x="630" y="180" width="115" height="60" as="geometry" />
        </mxCell>
        <mxCell id="9PnEpaF84pntTJBBmQTI-14" value="" style="endArrow=none;html=1;rounded=0;exitX=1;exitY=0.3333333333333333;exitDx=0;exitDy=0;exitPerimeter=0;entryX=0;entryY=0.5;entryDx=0;entryDy=0;" edge="1" parent="1" source="zBUH8bB0DNUc_hRBBucc-13" target="9PnEpaF84pntTJBBmQTI-9">
          <mxGeometry width="50" height="50" relative="1" as="geometry">
            <mxPoint x="183" y="555" as="sourcePoint" />
            <mxPoint x="390" y="460" as="targetPoint" />
          </mxGeometry>
        </mxCell>
        <mxCell id="9PnEpaF84pntTJBBmQTI-17" value="" style="endArrow=none;html=1;rounded=0;exitX=1;exitY=0.5;exitDx=0;exitDy=0;entryX=0;entryY=0.3333333333333333;entryDx=0;entryDy=0;entryPerimeter=0;" edge="1" parent="1" source="9PnEpaF84pntTJBBmQTI-6" target="zBUH8bB0DNUc_hRBBucc-15">
          <mxGeometry width="50" height="50" relative="1" as="geometry">
            <mxPoint x="203" y="575" as="sourcePoint" />
            <mxPoint x="1197" y="565" as="targetPoint" />
          </mxGeometry>
        </mxCell>
        <mxCell id="9PnEpaF84pntTJBBmQTI-21" value="" style="endArrow=none;html=1;rounded=0;entryX=0;entryY=0.3333333333333333;entryDx=0;entryDy=0;entryPerimeter=0;exitX=1;exitY=0.5;exitDx=0;exitDy=0;" edge="1" parent="1" source="9PnEpaF84pntTJBBmQTI-9" target="zBUH8bB0DNUc_hRBBucc-15">
          <mxGeometry width="50" height="50" relative="1" as="geometry">
            <mxPoint x="495" y="440" as="sourcePoint" />
            <mxPoint x="1197" y="565" as="targetPoint" />
          </mxGeometry>
        </mxCell>
        <mxCell id="agNvtQaMHTA4n6ELHWJP-1" value="" style="endArrow=none;html=1;rounded=0;entryX=0;entryY=0.5;entryDx=0;entryDy=0;exitX=1;exitY=0.3333333333333333;exitDx=0;exitDy=0;exitPerimeter=0;" edge="1" parent="1" source="zBUH8bB0DNUc_hRBBucc-13" target="9PnEpaF84pntTJBBmQTI-6">
          <mxGeometry width="50" height="50" relative="1" as="geometry">
            <mxPoint x="183" y="555" as="sourcePoint" />
            <mxPoint x="410" y="370" as="targetPoint" />
          </mxGeometry>
        </mxCell>
        <mxCell id="lYws6jtj6o3g3QgefoFy-1" value="Logout" style="ellipse;whiteSpace=wrap;html=1;" vertex="1" parent="1">
          <mxGeometry x="645" y="874" width="100" height="60" as="geometry" />
        </mxCell>
        <mxCell id="lYws6jtj6o3g3QgefoFy-2" value="" style="endArrow=none;html=1;rounded=0;exitX=0;exitY=0.5;exitDx=0;exitDy=0;entryX=1;entryY=0.3333333333333333;entryDx=0;entryDy=0;entryPerimeter=0;" edge="1" parent="1" source="lYws6jtj6o3g3QgefoFy-1" target="zBUH8bB0DNUc_hRBBucc-13">
          <mxGeometry width="50" height="50" relative="1" as="geometry">
            <mxPoint x="360" y="800" as="sourcePoint" />
            <mxPoint x="183" y="555" as="targetPoint" />
          </mxGeometry>
        </mxCell>
        <mxCell id="lYws6jtj6o3g3QgefoFy-3" value="" style="endArrow=none;html=1;rounded=0;exitX=1;exitY=0.5;exitDx=0;exitDy=0;entryX=0;entryY=0.3333333333333333;entryDx=0;entryDy=0;entryPerimeter=0;" edge="1" parent="1" source="lYws6jtj6o3g3QgefoFy-1" target="zBUH8bB0DNUc_hRBBucc-15">
          <mxGeometry width="50" height="50" relative="1" as="geometry">
            <mxPoint x="260" y="610" as="sourcePoint" />
            <mxPoint x="1197" y="565" as="targetPoint" />
          </mxGeometry>
        </mxCell>
        <mxCell id="zBUH8bB0DNUc_hRBBucc-4" value="&lt;font style=&quot;font-size: 10px;&quot;&gt;&amp;lt;&amp;lt;include&amp;gt;&amp;gt;&lt;/font&gt;" style="text;html=1;strokeColor=none;fillColor=none;align=center;verticalAlign=middle;whiteSpace=wrap;rounded=0;" vertex="1" parent="1">
          <mxGeometry x="640" y="250" width="160" height="20" as="geometry" />
        </mxCell>
        <mxCell id="zBUH8bB0DNUc_hRBBucc-12" value="" style="endArrow=classic;dashed=1;html=1;entryX=0.5;entryY=0;entryDx=0;entryDy=0;exitX=0.5;exitY=1;exitDx=0;exitDy=0;" edge="1" parent="1" source="9PnEpaF84pntTJBBmQTI-9" target="9PnEpaF84pntTJBBmQTI-6">
          <mxGeometry width="50" height="50" relative="1" as="geometry">
            <mxPoint x="680" y="240" as="sourcePoint" />
            <mxPoint x="680" y="280" as="targetPoint" />
            <Array as="points" />
          </mxGeometry>
        </mxCell>
        <mxCell id="zBUH8bB0DNUc_hRBBucc-13" value="User" style="shape=umlActor;verticalLabelPosition=bottom;verticalAlign=top;html=1;outlineConnect=0;" vertex="1" parent="1">
          <mxGeometry x="130" y="495" width="60" height="140" as="geometry" />
        </mxCell>
        <mxCell id="zBUH8bB0DNUc_hRBBucc-15" value="Admin" style="shape=umlActor;verticalLabelPosition=bottom;verticalAlign=top;html=1;outlineConnect=0;" vertex="1" parent="1">
          <mxGeometry x="1215" y="510" width="75" height="150" as="geometry" />
        </mxCell>
        <mxCell id="p-NeD2oOt9-igyjchaBP-1" value="Admin&amp;nbsp;&lt;br&gt;Homepage" style="ellipse;whiteSpace=wrap;html=1;" vertex="1" parent="1">
          <mxGeometry x="717" y="385" width="115" height="60" as="geometry" />
        </mxCell>
        <mxCell id="p-NeD2oOt9-igyjchaBP-3" value="&lt;font style=&quot;font-size: 10px;&quot;&gt;&amp;lt;&amp;lt;include&amp;gt;&amp;gt;&lt;/font&gt;" style="text;html=1;strokeColor=none;fillColor=none;align=center;verticalAlign=middle;whiteSpace=wrap;rounded=0;" vertex="1" parent="1">
          <mxGeometry x="680" y="360" width="160" height="20" as="geometry" />
        </mxCell>
        <mxCell id="p-NeD2oOt9-igyjchaBP-10" style="edgeStyle=orthogonalEdgeStyle;rounded=0;orthogonalLoop=1;jettySize=auto;html=1;exitX=0.5;exitY=1;exitDx=0;exitDy=0;" edge="1" parent="1" source="p-NeD2oOt9-igyjchaBP-7" target="p-NeD2oOt9-igyjchaBP-7">
          <mxGeometry relative="1" as="geometry" />
        </mxCell>
        <mxCell id="p-NeD2oOt9-igyjchaBP-11" value="" style="endArrow=classic;dashed=1;html=1;dashPattern=1 3;strokeWidth=2;rounded=0;exitX=1;exitY=1;exitDx=0;exitDy=0;" edge="1" parent="1" source="p-NeD2oOt9-igyjchaBP-1" target="9PnEpaF84pntTJBBmQTI-3">
          <mxGeometry width="50" height="50" relative="1" as="geometry">
            <mxPoint x="688" y="450" as="sourcePoint" />
            <mxPoint x="688" y="500" as="targetPoint" />
            <Array as="points" />
          </mxGeometry>
        </mxCell>
        <mxCell id="p-NeD2oOt9-igyjchaBP-12" value="&lt;font style=&quot;font-size: 10px;&quot;&gt;&amp;lt;&amp;lt;extend&amp;gt;&amp;gt;&lt;/font&gt;" style="text;html=1;strokeColor=none;fillColor=none;align=center;verticalAlign=middle;whiteSpace=wrap;rounded=0;rotation=30;" vertex="1" parent="1">
          <mxGeometry x="849" y="442" width="70" height="20" as="geometry" />
        </mxCell>
        <mxCell id="p-NeD2oOt9-igyjchaBP-15" value="Notification" style="ellipse;whiteSpace=wrap;html=1;" vertex="1" parent="1">
          <mxGeometry x="735" y="510" width="115" height="60" as="geometry" />
        </mxCell>
        <mxCell id="p-NeD2oOt9-igyjchaBP-16" value="" style="endArrow=classic;dashed=1;html=1;dashPattern=1 3;strokeWidth=2;rounded=0;exitX=0.578;exitY=0.995;exitDx=0;exitDy=0;exitPerimeter=0;entryX=0.448;entryY=-0.033;entryDx=0;entryDy=0;entryPerimeter=0;" edge="1" parent="1" source="p-NeD2oOt9-igyjchaBP-1" target="p-NeD2oOt9-igyjchaBP-15">
          <mxGeometry width="50" height="50" relative="1" as="geometry">
            <mxPoint x="598" y="450" as="sourcePoint" />
            <mxPoint x="598" y="500" as="targetPoint" />
            <Array as="points" />
          </mxGeometry>
        </mxCell>
        <mxCell id="p-NeD2oOt9-igyjchaBP-17" value="&lt;font style=&quot;font-size: 10px;&quot;&gt;&amp;lt;&amp;lt;extend&amp;gt;&amp;gt;&lt;/font&gt;" style="text;html=1;strokeColor=none;fillColor=none;align=center;verticalAlign=middle;whiteSpace=wrap;rounded=0;rotation=0;" vertex="1" parent="1">
          <mxGeometry x="745" y="460" width="145" height="30" as="geometry" />
        </mxCell>
        <mxCell id="p-NeD2oOt9-igyjchaBP-18" value="Add&lt;br&gt;Medicine" style="ellipse;whiteSpace=wrap;html=1;" vertex="1" parent="1">
          <mxGeometry x="820" y="581" width="115" height="60" as="geometry" />
        </mxCell>
        <mxCell id="p-NeD2oOt9-igyjchaBP-19" value="" style="endArrow=classic;dashed=1;html=1;dashPattern=1 3;strokeWidth=2;rounded=0;entryX=0.5;entryY=0;entryDx=0;entryDy=0;exitX=0.26;exitY=0.953;exitDx=0;exitDy=0;exitPerimeter=0;" edge="1" parent="1" source="9PnEpaF84pntTJBBmQTI-3" target="p-NeD2oOt9-igyjchaBP-18">
          <mxGeometry width="50" height="50" relative="1" as="geometry">
            <mxPoint x="620" y="540" as="sourcePoint" />
            <mxPoint x="516" y="621" as="targetPoint" />
          </mxGeometry>
        </mxCell>
        <mxCell id="p-NeD2oOt9-igyjchaBP-20" value="Display&lt;br&gt;Medicine" style="ellipse;whiteSpace=wrap;html=1;" vertex="1" parent="1">
          <mxGeometry x="975" y="581" width="115" height="60" as="geometry" />
        </mxCell>
        <mxCell id="p-NeD2oOt9-igyjchaBP-21" value="" style="endArrow=classic;dashed=1;html=1;dashPattern=1 3;strokeWidth=2;rounded=0;exitX=0.971;exitY=0.778;exitDx=0;exitDy=0;entryX=0.5;entryY=0;entryDx=0;entryDy=0;exitPerimeter=0;" edge="1" parent="1" source="9PnEpaF84pntTJBBmQTI-3" target="p-NeD2oOt9-igyjchaBP-20">
          <mxGeometry width="50" height="50" relative="1" as="geometry">
            <mxPoint x="442" y="486" as="sourcePoint" />
            <mxPoint x="430" y="540" as="targetPoint" />
          </mxGeometry>
        </mxCell>
        <mxCell id="p-NeD2oOt9-igyjchaBP-23" value="&lt;font style=&quot;font-size: 10px;&quot;&gt;&amp;lt;&amp;lt;extend&amp;gt;&amp;gt;&lt;/font&gt;" style="text;html=1;strokeColor=none;fillColor=none;align=center;verticalAlign=middle;whiteSpace=wrap;rounded=0;" vertex="1" parent="1">
          <mxGeometry x="846" y="546" width="160" height="20" as="geometry" />
        </mxCell>
        <mxCell id="p-NeD2oOt9-igyjchaBP-24" value="&lt;font style=&quot;font-size: 10px;&quot;&gt;&amp;lt;&amp;lt;extend&amp;gt;&amp;gt;&lt;/font&gt;" style="text;html=1;strokeColor=none;fillColor=none;align=center;verticalAlign=middle;whiteSpace=wrap;rounded=0;" vertex="1" parent="1">
          <mxGeometry x="1007" y="532" width="72" height="20" as="geometry" />
        </mxCell>
        <mxCell id="p-NeD2oOt9-igyjchaBP-7" value="&lt;font style=&quot;font-size: 10px;&quot;&gt;&amp;lt;&amp;lt;extend&amp;gt;&amp;gt;&lt;/font&gt;" style="text;html=1;strokeColor=none;fillColor=none;align=center;verticalAlign=middle;whiteSpace=wrap;rounded=0;rotation=0;" vertex="1" parent="1">
          <mxGeometry x="627.5" y="455" width="115" height="15" as="geometry" />
        </mxCell>
        <mxCell id="p-NeD2oOt9-igyjchaBP-25" value="User&lt;br&gt;Homepage" style="ellipse;whiteSpace=wrap;html=1;" vertex="1" parent="1">
          <mxGeometry x="440" y="430" width="115" height="60" as="geometry" />
        </mxCell>
        <mxCell id="p-NeD2oOt9-igyjchaBP-26" value="" style="endArrow=classic;dashed=1;html=1;entryX=0.699;entryY=-0.01;entryDx=0;entryDy=0;exitX=0;exitY=1;exitDx=0;exitDy=0;entryPerimeter=0;" edge="1" parent="1" source="9PnEpaF84pntTJBBmQTI-6" target="p-NeD2oOt9-igyjchaBP-25">
          <mxGeometry width="50" height="50" relative="1" as="geometry">
            <mxPoint x="568" y="370" as="sourcePoint" />
            <mxPoint x="568" y="420" as="targetPoint" />
            <Array as="points" />
          </mxGeometry>
        </mxCell>
        <mxCell id="P3RbrYsjLdGz1Y6_9V9f-1" value="" style="endArrow=classic;dashed=1;html=1;dashPattern=1 3;strokeWidth=2;rounded=0;exitX=0.096;exitY=0.793;exitDx=0;exitDy=0;exitPerimeter=0;entryX=1;entryY=0;entryDx=0;entryDy=0;" edge="1" parent="1" source="p-NeD2oOt9-igyjchaBP-1" target="9PnEpaF84pntTJBBmQTI-8">
          <mxGeometry width="50" height="50" relative="1" as="geometry">
            <mxPoint x="731" y="438" as="sourcePoint" />
            <mxPoint x="685" y="492" as="targetPoint" />
          </mxGeometry>
        </mxCell>
        <mxCell id="p-NeD2oOt9-igyjchaBP-27" value="&lt;font style=&quot;font-size: 10px;&quot;&gt;&amp;lt;&amp;lt;include&amp;gt;&amp;gt;&lt;/font&gt;" style="text;html=1;strokeColor=none;fillColor=none;align=center;verticalAlign=middle;whiteSpace=wrap;rounded=0;" vertex="1" parent="1">
          <mxGeometry x="460" y="380" width="160" height="20" as="geometry" />
        </mxCell>
        <mxCell id="p-NeD2oOt9-igyjchaBP-28" value="Buy&lt;br&gt;Medicine" style="ellipse;whiteSpace=wrap;html=1;" vertex="1" parent="1">
          <mxGeometry x="350" y="620" width="115" height="60" as="geometry" />
        </mxCell>
        <mxCell id="FwE6tusDSDk-5WPNyuzV-2" value="" style="endArrow=none;html=1;rounded=0;exitX=1;exitY=0.3333333333333333;exitDx=0;exitDy=0;exitPerimeter=0;entryX=0;entryY=0.5;entryDx=0;entryDy=0;" edge="1" parent="1" source="zBUH8bB0DNUc_hRBBucc-13" target="p-NeD2oOt9-igyjchaBP-25">
          <mxGeometry width="50" height="50" relative="1" as="geometry">
            <mxPoint x="590" y="490" as="sourcePoint" />
            <mxPoint x="640" y="440" as="targetPoint" />
          </mxGeometry>
        </mxCell>
        <mxCell id="p-NeD2oOt9-igyjchaBP-29" value="" style="endArrow=classic;dashed=1;html=1;dashPattern=1 3;strokeWidth=2;rounded=0;exitX=0.043;exitY=0.81;exitDx=0;exitDy=0;exitPerimeter=0;entryX=0.717;entryY=0.033;entryDx=0;entryDy=0;entryPerimeter=0;" edge="1" parent="1" source="p-NeD2oOt9-igyjchaBP-25" target="9PnEpaF84pntTJBBmQTI-4">
          <mxGeometry width="50" height="50" relative="1" as="geometry">
            <mxPoint x="438" y="463" as="sourcePoint" />
            <mxPoint x="413" y="529" as="targetPoint" />
          </mxGeometry>
        </mxCell>
        <mxCell id="p-NeD2oOt9-igyjchaBP-30" value="" style="endArrow=classic;dashed=1;html=1;dashPattern=1 3;strokeWidth=2;rounded=0;exitX=0;exitY=1;exitDx=0;exitDy=0;entryX=1;entryY=0;entryDx=0;entryDy=0;" edge="1" parent="1" source="9PnEpaF84pntTJBBmQTI-5" target="p-NeD2oOt9-igyjchaBP-28">
          <mxGeometry width="50" height="50" relative="1" as="geometry">
            <mxPoint x="586.5" y="617" as="sourcePoint" />
            <mxPoint x="493.5" y="660" as="targetPoint" />
          </mxGeometry>
        </mxCell>
        <mxCell id="p-NeD2oOt9-igyjchaBP-31" value="" style="endArrow=classic;dashed=1;html=1;dashPattern=1 3;strokeWidth=2;rounded=0;exitX=1;exitY=0.5;exitDx=0;exitDy=0;entryX=0;entryY=0.5;entryDx=0;entryDy=0;" edge="1" parent="1" source="9PnEpaF84pntTJBBmQTI-4" target="9PnEpaF84pntTJBBmQTI-5">
          <mxGeometry width="50" height="50" relative="1" as="geometry">
            <mxPoint x="377" y="601" as="sourcePoint" />
            <mxPoint x="367" y="629" as="targetPoint" />
          </mxGeometry>
        </mxCell>
        <mxCell id="p-NeD2oOt9-igyjchaBP-32" value="" style="endArrow=classic;dashed=1;html=1;dashPattern=1 3;strokeWidth=2;rounded=0;exitX=0.5;exitY=1;exitDx=0;exitDy=0;entryX=0.416;entryY=-0.014;entryDx=0;entryDy=0;entryPerimeter=0;" edge="1" parent="1" source="p-NeD2oOt9-igyjchaBP-25" target="9PnEpaF84pntTJBBmQTI-5">
          <mxGeometry width="50" height="50" relative="1" as="geometry">
            <mxPoint x="455" y="489" as="sourcePoint" />
            <mxPoint x="362" y="532" as="targetPoint" />
          </mxGeometry>
        </mxCell>
        <mxCell id="p-NeD2oOt9-igyjchaBP-33" value="&lt;font style=&quot;font-size: 10px;&quot;&gt;&amp;lt;&amp;lt;extend&amp;gt;&amp;gt;&lt;/font&gt;" style="text;html=1;strokeColor=none;fillColor=none;align=center;verticalAlign=middle;whiteSpace=wrap;rounded=0;rotation=0;" vertex="1" parent="1">
          <mxGeometry x="479.5" y="494" width="115" height="15" as="geometry" />
        </mxCell>
        <mxCell id="FwE6tusDSDk-5WPNyuzV-3" value="" style="swimlane;startSize=0;" vertex="1" parent="1">
          <mxGeometry x="248" y="100" width="900" height="850" as="geometry">
            <mxRectangle x="248" y="100" width="50" height="70" as="alternateBounds" />
          </mxGeometry>
        </mxCell>
        <mxCell id="FwE6tusDSDk-5WPNyuzV-4" value="" style="swimlane;startSize=0;" vertex="1" parent="1">
          <mxGeometry x="100" y="60" width="1220" height="940" as="geometry">
            <mxRectangle x="100" y="60" width="50" height="40" as="alternateBounds" />
          </mxGeometry>
        </mxCell>
        <mxCell id="geX7Y8SlEqYxHzRFolZ2-1" value="&lt;font style=&quot;font-size: 15px;&quot;&gt;Pharma: Pharmacy Management System&lt;/font&gt;" style="text;html=1;strokeColor=none;fillColor=none;align=center;verticalAlign=middle;whiteSpace=wrap;rounded=0;" vertex="1" parent="FwE6tusDSDk-5WPNyuzV-4">
          <mxGeometry x="290" y="60" width="610" height="30" as="geometry" />
        </mxCell>
        <mxCell id="2-KqZV5KogGnfryb2FzL-2" value="&lt;font style=&quot;font-size: 10px;&quot;&gt;&amp;lt;&amp;lt;extend&amp;gt;&amp;gt;&lt;/font&gt;" style="text;html=1;strokeColor=none;fillColor=none;align=center;verticalAlign=middle;whiteSpace=wrap;rounded=0;rotation=0;" vertex="1" parent="FwE6tusDSDk-5WPNyuzV-4">
          <mxGeometry x="258" y="492" width="115" height="15" as="geometry" />
        </mxCell>
        <mxCell id="2-KqZV5KogGnfryb2FzL-3" value="&lt;font style=&quot;font-size: 10px;&quot;&gt;&amp;lt;&amp;lt;extend&amp;gt;&amp;gt;&lt;/font&gt;" style="text;html=1;strokeColor=none;fillColor=none;align=center;verticalAlign=middle;whiteSpace=wrap;rounded=0;rotation=0;" vertex="1" parent="1">
          <mxGeometry x="379.5" y="494" width="115" height="15" as="geometry" />
        </mxCell>
        <mxCell id="2-KqZV5KogGnfryb2FzL-4" value="&lt;font style=&quot;font-size: 10px;&quot;&gt;&amp;lt;&amp;lt;extend&amp;gt;&amp;gt;&lt;/font&gt;" style="text;html=1;strokeColor=none;fillColor=none;align=center;verticalAlign=middle;whiteSpace=wrap;rounded=0;rotation=0;" vertex="1" parent="1">
          <mxGeometry x="439.5" y="600" width="115" height="15" as="geometry" />
        </mxCell>
      </root>
    </mxGraphModel>
  </diagram>
  <diagram name="dfd 0" id="X2rvg18uh36Ry9Zdzpt1">
    <mxGraphModel dx="756" dy="379" grid="1" gridSize="10" guides="1" tooltips="1" connect="1" arrows="1" fold="1" page="1" pageScale="1" pageWidth="850" pageHeight="1100" math="0" shadow="0">
      <root>
        <mxCell id="0" />
        <mxCell id="1" parent="0" />
        <mxCell id="DlQX9hMMLcK9fw4LQusJ-2" value="" style="rounded=0;whiteSpace=wrap;html=1;" parent="1" vertex="1">
          <mxGeometry x="40" y="70" width="810" height="230" as="geometry" />
        </mxCell>
        <mxCell id="RkbZ2T243bp1puC2Seu3-1" value="1.0" style="swimlane;childLayout=stackLayout;horizontal=1;startSize=30;horizontalStack=0;rounded=1;fontSize=16;fontStyle=0;strokeWidth=2;resizeParent=0;resizeLast=1;shadow=0;dashed=0;align=center;arcSize=4;whiteSpace=wrap;html=1;" parent="1" vertex="1">
          <mxGeometry x="400" y="135" width="130" height="80" as="geometry" />
        </mxCell>
        <mxCell id="RkbZ2T243bp1puC2Seu3-2" value="pharmacy&lt;br&gt;system" style="align=center;strokeColor=none;fillColor=none;spacingLeft=4;fontSize=16;verticalAlign=top;resizable=0;rotatable=0;part=1;html=1;" parent="RkbZ2T243bp1puC2Seu3-1" vertex="1">
          <mxGeometry y="30" width="130" height="50" as="geometry" />
        </mxCell>
        <mxCell id="RkbZ2T243bp1puC2Seu3-5" value="user" style="rounded=0;whiteSpace=wrap;html=1;fontSize=16;align=center;" parent="1" vertex="1">
          <mxGeometry x="140" y="150" width="120" height="50" as="geometry" />
        </mxCell>
        <mxCell id="RkbZ2T243bp1puC2Seu3-6" value="admin" style="rounded=0;whiteSpace=wrap;html=1;fontSize=16;align=center;" parent="1" vertex="1">
          <mxGeometry x="670" y="150" width="120" height="50" as="geometry" />
        </mxCell>
        <mxCell id="RkbZ2T243bp1puC2Seu3-8" value="" style="endArrow=classic;html=1;rounded=0;entryX=-0.022;entryY=0.378;entryDx=0;entryDy=0;entryPerimeter=0;fontSize=16;align=center;" parent="1" target="RkbZ2T243bp1puC2Seu3-1" edge="1">
          <mxGeometry width="50" height="50" relative="1" as="geometry">
            <mxPoint x="260" y="166" as="sourcePoint" />
            <mxPoint x="400" y="170" as="targetPoint" />
          </mxGeometry>
        </mxCell>
        <mxCell id="RkbZ2T243bp1puC2Seu3-9" value="" style="endArrow=classic;html=1;rounded=0;fontSize=16;align=center;" parent="1" edge="1">
          <mxGeometry width="50" height="50" relative="1" as="geometry">
            <mxPoint x="530" y="170" as="sourcePoint" />
            <mxPoint x="667" y="170" as="targetPoint" />
          </mxGeometry>
        </mxCell>
        <mxCell id="RkbZ2T243bp1puC2Seu3-10" value="" style="endArrow=classic;html=1;rounded=0;fontSize=16;align=center;" parent="1" edge="1">
          <mxGeometry width="50" height="50" relative="1" as="geometry">
            <mxPoint x="400" y="188" as="sourcePoint" />
            <mxPoint x="260" y="190" as="targetPoint" />
          </mxGeometry>
        </mxCell>
        <mxCell id="RkbZ2T243bp1puC2Seu3-11" value="" style="endArrow=classic;html=1;rounded=0;entryX=1;entryY=0.75;entryDx=0;entryDy=0;fontSize=16;align=center;" parent="1" edge="1">
          <mxGeometry width="50" height="50" relative="1" as="geometry">
            <mxPoint x="670" y="190" as="sourcePoint" />
            <mxPoint x="530" y="190" as="targetPoint" />
          </mxGeometry>
        </mxCell>
        <mxCell id="RkbZ2T243bp1puC2Seu3-13" value="request&lt;br style=&quot;font-size: 16px;&quot;&gt;medicine" style="text;html=1;strokeColor=none;fillColor=none;align=center;verticalAlign=middle;whiteSpace=wrap;rounded=0;fontSize=16;" parent="1" vertex="1">
          <mxGeometry x="270" y="130" width="110" height="30" as="geometry" />
        </mxCell>
        <mxCell id="RkbZ2T243bp1puC2Seu3-15" value="search&lt;br style=&quot;font-size: 16px;&quot;&gt;medicine" style="text;html=1;strokeColor=none;fillColor=none;align=center;verticalAlign=middle;whiteSpace=wrap;rounded=0;fontSize=16;" parent="1" vertex="1">
          <mxGeometry x="550" y="130" width="110" height="30" as="geometry" />
        </mxCell>
        <mxCell id="RkbZ2T243bp1puC2Seu3-16" value="provide&lt;br style=&quot;font-size: 16px;&quot;&gt;medicine" style="text;html=1;strokeColor=none;fillColor=none;align=center;verticalAlign=middle;whiteSpace=wrap;rounded=0;fontSize=16;" parent="1" vertex="1">
          <mxGeometry x="280" y="200" width="110" height="30" as="geometry" />
        </mxCell>
        <mxCell id="RkbZ2T243bp1puC2Seu3-18" value="provide&lt;br style=&quot;font-size: 16px;&quot;&gt;medicine" style="text;html=1;strokeColor=none;fillColor=none;align=center;verticalAlign=middle;whiteSpace=wrap;rounded=0;fontSize=16;" parent="1" vertex="1">
          <mxGeometry x="550" y="200" width="110" height="30" as="geometry" />
        </mxCell>
      </root>
    </mxGraphModel>
  </diagram>
  <diagram name="dfd main" id="E09g2QpVK3PtN5LGPj1D">
    <mxGraphModel dx="1008" dy="505" grid="1" gridSize="10" guides="1" tooltips="1" connect="1" arrows="1" fold="1" page="1" pageScale="1" pageWidth="850" pageHeight="1100" math="0" shadow="0">
      <root>
        <mxCell id="0" />
        <mxCell id="1" parent="0" />
        <mxCell id="2mJV5KqvCpebxhrFgeDD-12" value="" style="rounded=0;whiteSpace=wrap;html=1;" parent="1" vertex="1">
          <mxGeometry x="80" y="50" width="810" height="690" as="geometry" />
        </mxCell>
        <mxCell id="1QhpiC1wak3GlcqwHLgx-1" value="1.0" style="swimlane;childLayout=stackLayout;horizontal=1;startSize=30;horizontalStack=0;rounded=1;fontSize=16;fontStyle=0;strokeWidth=2;resizeParent=0;resizeLast=1;shadow=0;dashed=0;align=center;arcSize=4;whiteSpace=wrap;html=1;" parent="1" vertex="1">
          <mxGeometry x="400" y="135" width="130" height="80" as="geometry" />
        </mxCell>
        <mxCell id="1QhpiC1wak3GlcqwHLgx-2" value="pharmacy&lt;br style=&quot;font-size: 16px;&quot;&gt;system" style="align=center;strokeColor=none;fillColor=none;spacingLeft=4;fontSize=16;verticalAlign=top;resizable=0;rotatable=0;part=1;html=1;" parent="1QhpiC1wak3GlcqwHLgx-1" vertex="1">
          <mxGeometry y="30" width="130" height="50" as="geometry" />
        </mxCell>
        <mxCell id="1QhpiC1wak3GlcqwHLgx-3" value="user" style="rounded=0;whiteSpace=wrap;html=1;fontSize=16;align=center;" parent="1" vertex="1">
          <mxGeometry x="140" y="150" width="120" height="50" as="geometry" />
        </mxCell>
        <mxCell id="YcBWC95i8i3vtL7HmPsO-3" style="edgeStyle=orthogonalEdgeStyle;rounded=0;orthogonalLoop=1;jettySize=auto;html=1;exitX=0.5;exitY=0;exitDx=0;exitDy=0;entryX=1;entryY=1;entryDx=0;entryDy=0;" parent="1" source="1QhpiC1wak3GlcqwHLgx-4" target="YcBWC95i8i3vtL7HmPsO-2" edge="1">
          <mxGeometry relative="1" as="geometry" />
        </mxCell>
        <mxCell id="1QhpiC1wak3GlcqwHLgx-4" value="admin" style="rounded=0;whiteSpace=wrap;html=1;fontSize=15;align=center;" parent="1" vertex="1">
          <mxGeometry x="670" y="150" width="120" height="50" as="geometry" />
        </mxCell>
        <mxCell id="1QhpiC1wak3GlcqwHLgx-5" value="" style="endArrow=classic;html=1;rounded=0;entryX=-0.022;entryY=0.378;entryDx=0;entryDy=0;entryPerimeter=0;fontSize=16;align=center;" parent="1" target="1QhpiC1wak3GlcqwHLgx-1" edge="1">
          <mxGeometry width="50" height="50" relative="1" as="geometry">
            <mxPoint x="260" y="166" as="sourcePoint" />
            <mxPoint x="400" y="170" as="targetPoint" />
          </mxGeometry>
        </mxCell>
        <mxCell id="1QhpiC1wak3GlcqwHLgx-6" value="" style="endArrow=classic;html=1;rounded=0;entryX=-0.022;entryY=0.378;entryDx=0;entryDy=0;entryPerimeter=0;fontSize=16;align=center;" parent="1" edge="1">
          <mxGeometry width="50" height="50" relative="1" as="geometry">
            <mxPoint x="530" y="170" as="sourcePoint" />
            <mxPoint x="667" y="170" as="targetPoint" />
          </mxGeometry>
        </mxCell>
        <mxCell id="1QhpiC1wak3GlcqwHLgx-7" value="" style="endArrow=classic;html=1;rounded=0;entryX=1;entryY=0.75;entryDx=0;entryDy=0;fontSize=16;align=center;" parent="1" target="1QhpiC1wak3GlcqwHLgx-3" edge="1">
          <mxGeometry width="50" height="50" relative="1" as="geometry">
            <mxPoint x="400" y="188" as="sourcePoint" />
            <mxPoint x="450" y="220" as="targetPoint" />
          </mxGeometry>
        </mxCell>
        <mxCell id="1QhpiC1wak3GlcqwHLgx-8" value="" style="endArrow=classic;html=1;rounded=0;entryX=1;entryY=0.75;entryDx=0;entryDy=0;fontSize=16;align=center;" parent="1" edge="1">
          <mxGeometry width="50" height="50" relative="1" as="geometry">
            <mxPoint x="670" y="190" as="sourcePoint" />
            <mxPoint x="530" y="190" as="targetPoint" />
          </mxGeometry>
        </mxCell>
        <mxCell id="1QhpiC1wak3GlcqwHLgx-9" value="request&lt;br style=&quot;font-size: 16px;&quot;&gt;medicine" style="text;html=1;strokeColor=none;fillColor=none;align=center;verticalAlign=middle;whiteSpace=wrap;rounded=0;fontSize=16;" parent="1" vertex="1">
          <mxGeometry x="270" y="130" width="110" height="30" as="geometry" />
        </mxCell>
        <mxCell id="1QhpiC1wak3GlcqwHLgx-10" value="search&lt;br style=&quot;font-size: 16px;&quot;&gt;medicine" style="text;html=1;strokeColor=none;fillColor=none;align=center;verticalAlign=middle;whiteSpace=wrap;rounded=0;fontSize=16;" parent="1" vertex="1">
          <mxGeometry x="550" y="130" width="110" height="30" as="geometry" />
        </mxCell>
        <mxCell id="1QhpiC1wak3GlcqwHLgx-11" value="provide&lt;br style=&quot;font-size: 16px;&quot;&gt;medicine" style="text;html=1;strokeColor=none;fillColor=none;align=center;verticalAlign=middle;whiteSpace=wrap;rounded=0;fontSize=16;" parent="1" vertex="1">
          <mxGeometry x="280" y="200" width="110" height="30" as="geometry" />
        </mxCell>
        <mxCell id="1QhpiC1wak3GlcqwHLgx-12" value="provide&lt;br style=&quot;font-size: 16px;&quot;&gt;medicine" style="text;html=1;strokeColor=none;fillColor=none;align=center;verticalAlign=middle;whiteSpace=wrap;rounded=0;fontSize=16;" parent="1" vertex="1">
          <mxGeometry x="550" y="200" width="110" height="30" as="geometry" />
        </mxCell>
        <mxCell id="xmd9wmJbUOXQgLouXWJu-2" value="3.0" style="swimlane;childLayout=stackLayout;horizontal=1;startSize=30;horizontalStack=0;rounded=1;fontSize=16;fontStyle=0;strokeWidth=2;resizeParent=0;resizeLast=1;shadow=0;dashed=0;align=center;arcSize=4;whiteSpace=wrap;html=1;" parent="1" vertex="1">
          <mxGeometry x="560" y="330" width="130" height="80" as="geometry" />
        </mxCell>
        <mxCell id="xmd9wmJbUOXQgLouXWJu-3" value="patient&amp;nbsp;&lt;br&gt;record" style="align=center;strokeColor=none;fillColor=none;spacingLeft=4;fontSize=16;verticalAlign=middle;resizable=0;rotatable=0;part=1;html=1;" parent="xmd9wmJbUOXQgLouXWJu-2" vertex="1">
          <mxGeometry y="30" width="130" height="50" as="geometry" />
        </mxCell>
        <mxCell id="xmd9wmJbUOXQgLouXWJu-6" value="2.0" style="swimlane;childLayout=stackLayout;horizontal=1;startSize=30;horizontalStack=0;rounded=1;fontSize=16;fontStyle=0;strokeWidth=2;resizeParent=0;resizeLast=1;shadow=0;dashed=0;align=center;arcSize=4;whiteSpace=wrap;html=1;" parent="1" vertex="1">
          <mxGeometry x="250" y="330" width="130" height="80" as="geometry" />
        </mxCell>
        <mxCell id="xmd9wmJbUOXQgLouXWJu-7" value="medicine&lt;br style=&quot;font-size: 16px;&quot;&gt;record" style="align=center;strokeColor=none;fillColor=none;spacingLeft=4;fontSize=16;verticalAlign=middle;resizable=0;rotatable=0;part=1;html=1;" parent="xmd9wmJbUOXQgLouXWJu-6" vertex="1">
          <mxGeometry y="30" width="130" height="50" as="geometry" />
        </mxCell>
        <mxCell id="xmd9wmJbUOXQgLouXWJu-8" value="" style="endArrow=none;html=1;rounded=0;entryX=0.422;entryY=0.963;entryDx=0;entryDy=0;entryPerimeter=0;fontSize=16;align=center;" parent="1" target="1QhpiC1wak3GlcqwHLgx-2" edge="1">
          <mxGeometry width="50" height="50" relative="1" as="geometry">
            <mxPoint x="455" y="260" as="sourcePoint" />
            <mxPoint x="460" y="210" as="targetPoint" />
          </mxGeometry>
        </mxCell>
        <mxCell id="xmd9wmJbUOXQgLouXWJu-9" value="" style="endArrow=none;html=1;rounded=0;fontSize=16;align=center;" parent="1" edge="1">
          <mxGeometry width="50" height="50" relative="1" as="geometry">
            <mxPoint x="310" y="260" as="sourcePoint" />
            <mxPoint x="620" y="260" as="targetPoint" />
          </mxGeometry>
        </mxCell>
        <mxCell id="ZENYBKrd5yIVnGhS1US6-4" value="&lt;span style=&quot;color: rgb(0, 0, 0); font-family: Helvetica; font-size: 16px; font-style: normal; font-variant-ligatures: normal; font-variant-caps: normal; font-weight: 400; letter-spacing: normal; orphans: 2; text-indent: 0px; text-transform: none; widows: 2; word-spacing: 0px; -webkit-text-stroke-width: 0px; background-color: rgb(251, 251, 251); text-decoration-thickness: initial; text-decoration-style: initial; text-decoration-color: initial; float: none; display: inline !important;&quot;&gt;medicine&amp;nbsp;&lt;/span&gt;&lt;br style=&quot;border-color: var(--border-color); color: rgb(0, 0, 0); font-family: Helvetica; font-size: 16px; font-style: normal; font-variant-ligatures: normal; font-variant-caps: normal; font-weight: 400; letter-spacing: normal; orphans: 2; text-indent: 0px; text-transform: none; widows: 2; word-spacing: 0px; -webkit-text-stroke-width: 0px; background-color: rgb(251, 251, 251); text-decoration-thickness: initial; text-decoration-style: initial; text-decoration-color: initial;&quot;&gt;&lt;span style=&quot;color: rgb(0, 0, 0); font-family: Helvetica; font-size: 16px; font-style: normal; font-variant-ligatures: normal; font-variant-caps: normal; font-weight: 400; letter-spacing: normal; orphans: 2; text-indent: 0px; text-transform: none; widows: 2; word-spacing: 0px; -webkit-text-stroke-width: 0px; background-color: rgb(251, 251, 251); text-decoration-thickness: initial; text-decoration-style: initial; text-decoration-color: initial; float: none; display: inline !important;&quot;&gt;functionality&lt;/span&gt;" style="text;whiteSpace=wrap;html=1;fontSize=16;align=center;" parent="1" vertex="1">
          <mxGeometry x="190" y="270" width="100" height="50" as="geometry" />
        </mxCell>
        <mxCell id="ZENYBKrd5yIVnGhS1US6-6" value="record&lt;br style=&quot;font-size: 16px;&quot;&gt;detail&lt;br style=&quot;font-size: 16px;&quot;&gt;" style="text;html=1;strokeColor=none;fillColor=none;align=center;verticalAlign=middle;whiteSpace=wrap;rounded=0;fontSize=16;" parent="1" vertex="1">
          <mxGeometry x="680" y="270" width="60" height="30" as="geometry" />
        </mxCell>
        <mxCell id="ZENYBKrd5yIVnGhS1US6-14" value="&lt;span style=&quot;white-space: pre;&quot;&gt;&#x9;&lt;/span&gt;patient info" style="shape=partialRectangle;whiteSpace=wrap;html=1;left=0;right=0;fillColor=none;fontSize=16;align=center;verticalAlign=middle;" parent="1" vertex="1">
          <mxGeometry x="570" y="480" width="160" height="60" as="geometry" />
        </mxCell>
        <mxCell id="ZENYBKrd5yIVnGhS1US6-15" value="&lt;font style=&quot;font-size: 12px;&quot;&gt;patient&lt;br&gt;db&lt;/font&gt;" style="shape=partialRectangle;whiteSpace=wrap;html=1;bottom=0;top=0;fillColor=none;fontSize=16;align=center;verticalAlign=middle;" parent="1" vertex="1">
          <mxGeometry x="570" y="480" width="50" height="60" as="geometry" />
        </mxCell>
        <mxCell id="ZENYBKrd5yIVnGhS1US6-16" value="&lt;span style=&quot;white-space: pre;&quot;&gt;&#x9;&lt;/span&gt;medicine info" style="shape=partialRectangle;whiteSpace=wrap;html=1;left=0;right=0;fillColor=none;fontSize=16;align=center;verticalAlign=middle;" parent="1" vertex="1">
          <mxGeometry x="220" y="480" width="180" height="60" as="geometry" />
        </mxCell>
        <mxCell id="ZENYBKrd5yIVnGhS1US6-17" value="&lt;font style=&quot;font-size: 12px;&quot;&gt;medicine&lt;br&gt;db&lt;br&gt;&lt;/font&gt;" style="shape=partialRectangle;whiteSpace=wrap;html=1;bottom=0;top=0;fillColor=none;fontSize=16;align=center;verticalAlign=middle;" parent="1" vertex="1">
          <mxGeometry x="220" y="480" width="50" height="60" as="geometry" />
        </mxCell>
        <mxCell id="QE4-oSTDpG8NarzuEMJe-4" value="" style="endArrow=classic;html=1;rounded=0;exitX=0.5;exitY=1;exitDx=0;exitDy=0;fontSize=16;align=center;verticalAlign=middle;" parent="1" source="xmd9wmJbUOXQgLouXWJu-7" edge="1">
          <mxGeometry width="50" height="50" relative="1" as="geometry">
            <mxPoint x="400" y="370" as="sourcePoint" />
            <mxPoint x="315" y="480" as="targetPoint" />
          </mxGeometry>
        </mxCell>
        <mxCell id="QE4-oSTDpG8NarzuEMJe-5" value="" style="endArrow=classic;html=1;rounded=0;exitX=0.5;exitY=1;exitDx=0;exitDy=0;fontSize=16;align=center;verticalAlign=middle;" parent="1" edge="1">
          <mxGeometry width="50" height="50" relative="1" as="geometry">
            <mxPoint x="630" y="410" as="sourcePoint" />
            <mxPoint x="630" y="480" as="targetPoint" />
            <Array as="points">
              <mxPoint x="630" y="420" />
            </Array>
          </mxGeometry>
        </mxCell>
        <mxCell id="woQt8OQaGvyxhEdkcGzb-1" value="medicine&lt;br style=&quot;font-size: 16px;&quot;&gt;record" style="text;html=1;align=center;verticalAlign=middle;resizable=0;points=[];autosize=1;strokeColor=none;fillColor=none;fontSize=16;" parent="1" vertex="1">
          <mxGeometry x="230" y="420" width="90" height="50" as="geometry" />
        </mxCell>
        <mxCell id="woQt8OQaGvyxhEdkcGzb-2" value="record&lt;br style=&quot;font-size: 16px;&quot;&gt;list" style="text;html=1;align=center;verticalAlign=middle;resizable=0;points=[];autosize=1;strokeColor=none;fillColor=none;fontSize=16;rotation=0;" parent="1" vertex="1">
          <mxGeometry x="650" y="430" width="70" height="50" as="geometry" />
        </mxCell>
        <mxCell id="woQt8OQaGvyxhEdkcGzb-3" value="" style="endArrow=classic;html=1;rounded=0;" parent="1" edge="1">
          <mxGeometry width="50" height="50" relative="1" as="geometry">
            <mxPoint x="310" y="260" as="sourcePoint" />
            <mxPoint x="310" y="330" as="targetPoint" />
          </mxGeometry>
        </mxCell>
        <mxCell id="woQt8OQaGvyxhEdkcGzb-4" value="" style="endArrow=classic;html=1;rounded=0;" parent="1" edge="1">
          <mxGeometry width="50" height="50" relative="1" as="geometry">
            <mxPoint x="620" y="260" as="sourcePoint" />
            <mxPoint x="620" y="330" as="targetPoint" />
          </mxGeometry>
        </mxCell>
        <mxCell id="2mJV5KqvCpebxhrFgeDD-4" value="4.0" style="swimlane;childLayout=stackLayout;horizontal=1;startSize=30;horizontalStack=0;rounded=1;fontSize=16;fontStyle=0;strokeWidth=2;resizeParent=0;resizeLast=1;shadow=0;dashed=0;align=center;arcSize=4;whiteSpace=wrap;html=1;" parent="1" vertex="1">
          <mxGeometry x="250" y="650" width="130" height="80" as="geometry" />
        </mxCell>
        <mxCell id="2mJV5KqvCpebxhrFgeDD-5" value="Adding/updating&lt;br&gt;system" style="align=center;strokeColor=none;fillColor=none;spacingLeft=4;fontSize=16;verticalAlign=middle;resizable=0;rotatable=0;part=1;html=1;" parent="2mJV5KqvCpebxhrFgeDD-4" vertex="1">
          <mxGeometry y="30" width="130" height="50" as="geometry" />
        </mxCell>
        <mxCell id="2mJV5KqvCpebxhrFgeDD-8" value="" style="endArrow=classic;html=1;rounded=0;exitX=0.5;exitY=1;exitDx=0;exitDy=0;fontSize=16;align=center;verticalAlign=middle;" parent="1" source="ZENYBKrd5yIVnGhS1US6-16" edge="1">
          <mxGeometry width="50" height="50" relative="1" as="geometry">
            <mxPoint x="310" y="580" as="sourcePoint" />
            <mxPoint x="310" y="650" as="targetPoint" />
            <Array as="points" />
          </mxGeometry>
        </mxCell>
        <mxCell id="2mJV5KqvCpebxhrFgeDD-11" value="" style="endArrow=classic;html=1;rounded=0;exitX=1;exitY=0;exitDx=0;exitDy=0;entryX=1;entryY=0.5;entryDx=0;entryDy=0;" parent="1" source="2mJV5KqvCpebxhrFgeDD-5" target="1QhpiC1wak3GlcqwHLgx-4" edge="1">
          <mxGeometry width="50" height="50" relative="1" as="geometry">
            <mxPoint x="400" y="610" as="sourcePoint" />
            <mxPoint x="850" y="170" as="targetPoint" />
            <Array as="points">
              <mxPoint x="850" y="680" />
              <mxPoint x="850" y="175" />
            </Array>
          </mxGeometry>
        </mxCell>
        <mxCell id="YcBWC95i8i3vtL7HmPsO-1" value="&lt;span style=&quot;white-space: pre;&quot;&gt;&#x9;&lt;/span&gt;admin info" style="shape=partialRectangle;whiteSpace=wrap;html=1;left=0;right=0;fillColor=none;fontSize=16;align=center;verticalAlign=middle;" parent="1" vertex="1">
          <mxGeometry x="680" y="70" width="160" height="60" as="geometry" />
        </mxCell>
        <mxCell id="YcBWC95i8i3vtL7HmPsO-2" value="&lt;span style=&quot;font-size: 12px;&quot;&gt;admin db&lt;/span&gt;" style="shape=partialRectangle;whiteSpace=wrap;html=1;bottom=0;top=0;fillColor=none;fontSize=16;align=center;verticalAlign=middle;" parent="1" vertex="1">
          <mxGeometry x="680" y="70" width="50" height="60" as="geometry" />
        </mxCell>
      </root>
    </mxGraphModel>
  </diagram>
  <diagram name="schema diagram" id="LuBWfxX5GXsv7mg2rPuy">
    <mxGraphModel dx="1260" dy="632" grid="1" gridSize="10" guides="1" tooltips="1" connect="1" arrows="1" fold="1" page="1" pageScale="1" pageWidth="850" pageHeight="1100" math="0" shadow="0">
      <root>
        <mxCell id="0" />
        <mxCell id="1" parent="0" />
        <mxCell id="sKzgu3x04bCNLOubvYIV-32" value="Admin" style="swimlane;childLayout=stackLayout;horizontal=1;startSize=40;horizontalStack=0;rounded=1;fontSize=17;fontStyle=0;strokeWidth=2;resizeParent=0;resizeLast=1;shadow=0;dashed=0;align=center;arcSize=4;whiteSpace=wrap;html=1;" parent="1" vertex="1">
          <mxGeometry x="425" y="240" width="159" height="220" as="geometry" />
        </mxCell>
        <mxCell id="sKzgu3x04bCNLOubvYIV-33" value="&lt;u&gt;aid&lt;/u&gt;&amp;nbsp; &amp;nbsp; (PK)&lt;br style=&quot;font-size: 17px;&quot;&gt;username&lt;br style=&quot;font-size: 17px;&quot;&gt;password&lt;br style=&quot;font-size: 17px;&quot;&gt;contact&lt;br style=&quot;font-size: 17px;&quot;&gt;address&lt;br style=&quot;font-size: 17px;&quot;&gt;email" style="align=left;strokeColor=none;fillColor=none;spacingLeft=4;fontSize=17;verticalAlign=top;resizable=0;rotatable=0;part=1;html=1;" parent="sKzgu3x04bCNLOubvYIV-32" vertex="1">
          <mxGeometry y="40" width="159" height="180" as="geometry" />
        </mxCell>
        <mxCell id="sKzgu3x04bCNLOubvYIV-36" value="Medicine" style="swimlane;childLayout=stackLayout;horizontal=1;startSize=40;horizontalStack=0;rounded=1;fontSize=17;fontStyle=0;strokeWidth=2;resizeParent=0;resizeLast=1;shadow=0;dashed=0;align=center;arcSize=4;whiteSpace=wrap;html=1;" parent="1" vertex="1">
          <mxGeometry x="901" y="250" width="149" height="210" as="geometry" />
        </mxCell>
        <mxCell id="sKzgu3x04bCNLOubvYIV-37" value="&lt;u&gt;mid&lt;/u&gt;&amp;nbsp; &amp;nbsp;(PK)&lt;br style=&quot;font-size: 17px;&quot;&gt;mname&lt;br style=&quot;font-size: 17px;&quot;&gt;description&lt;br style=&quot;font-size: 17px;&quot;&gt;mft date&lt;br style=&quot;font-size: 17px;&quot;&gt;exp date&lt;br style=&quot;font-size: 17px;&quot;&gt;batch no&lt;br style=&quot;font-size: 17px;&quot;&gt;&lt;u&gt;aid&lt;/u&gt;&amp;nbsp; &amp;nbsp;(FK)&lt;br style=&quot;font-size: 17px;&quot;&gt;&lt;u&gt;pid&lt;/u&gt;&amp;nbsp; &amp;nbsp;(FK)" style="align=left;strokeColor=none;fillColor=none;spacingLeft=4;fontSize=17;verticalAlign=top;resizable=0;rotatable=0;part=1;html=1;" parent="sKzgu3x04bCNLOubvYIV-36" vertex="1">
          <mxGeometry y="40" width="149" height="170" as="geometry" />
        </mxCell>
        <mxCell id="sKzgu3x04bCNLOubvYIV-38" value="Patient" style="swimlane;childLayout=stackLayout;horizontal=1;startSize=40;horizontalStack=0;rounded=1;fontSize=17;fontStyle=0;strokeWidth=2;resizeParent=0;resizeLast=1;shadow=0;dashed=0;align=center;arcSize=4;whiteSpace=wrap;html=1;" parent="1" vertex="1">
          <mxGeometry x="660" y="530" width="161" height="110" as="geometry">
            <mxRectangle x="660" y="530" width="90" height="40" as="alternateBounds" />
          </mxGeometry>
        </mxCell>
        <mxCell id="sKzgu3x04bCNLOubvYIV-39" value="&lt;u&gt;pid&lt;/u&gt;&amp;nbsp; &amp;nbsp;(PK)&lt;br style=&quot;font-size: 17px;&quot;&gt;pname&lt;br style=&quot;font-size: 17px;&quot;&gt;&lt;u&gt;aid&lt;/u&gt;&amp;nbsp; &amp;nbsp;(FK)" style="align=left;strokeColor=none;fillColor=none;spacingLeft=4;fontSize=17;verticalAlign=top;resizable=0;rotatable=0;part=1;html=1;" parent="sKzgu3x04bCNLOubvYIV-38" vertex="1">
          <mxGeometry y="40" width="161" height="70" as="geometry" />
        </mxCell>
        <mxCell id="sKzgu3x04bCNLOubvYIV-42" value="" style="line;strokeWidth=2;html=1;" parent="1" vertex="1">
          <mxGeometry x="710" y="440" as="geometry" />
        </mxCell>
        <mxCell id="QMGteqbtM3IZytMe-RMz-4" value="" style="endArrow=classic;html=1;rounded=0;exitX=-0.007;exitY=0.941;exitDx=0;exitDy=0;exitPerimeter=0;" parent="1" source="sKzgu3x04bCNLOubvYIV-37" edge="1">
          <mxGeometry width="50" height="50" relative="1" as="geometry">
            <mxPoint x="891" y="450" as="sourcePoint" />
            <mxPoint x="821" y="580" as="targetPoint" />
            <Array as="points">
              <mxPoint x="861" y="450" />
              <mxPoint x="861" y="580" />
            </Array>
          </mxGeometry>
        </mxCell>
        <mxCell id="QMGteqbtM3IZytMe-RMz-5" value="" style="endArrow=classic;html=1;rounded=0;entryX=0;entryY=0.25;entryDx=0;entryDy=0;" parent="1" target="sKzgu3x04bCNLOubvYIV-32" edge="1">
          <mxGeometry width="50" height="50" relative="1" as="geometry">
            <mxPoint x="660" y="630" as="sourcePoint" />
            <mxPoint x="250" y="230" as="targetPoint" />
            <Array as="points">
              <mxPoint x="320" y="630" />
              <mxPoint x="320" y="295" />
            </Array>
          </mxGeometry>
        </mxCell>
        <mxCell id="QMGteqbtM3IZytMe-RMz-6" value="" style="endArrow=classic;html=1;rounded=0;entryX=0.996;entryY=0.087;entryDx=0;entryDy=0;entryPerimeter=0;exitX=0.009;exitY=0.833;exitDx=0;exitDy=0;exitPerimeter=0;" parent="1" source="sKzgu3x04bCNLOubvYIV-37" target="sKzgu3x04bCNLOubvYIV-33" edge="1">
          <mxGeometry width="50" height="50" relative="1" as="geometry">
            <mxPoint x="840" y="490" as="sourcePoint" />
            <mxPoint x="890" y="440" as="targetPoint" />
            <Array as="points">
              <mxPoint x="710" y="430" />
              <mxPoint x="710" y="296" />
            </Array>
          </mxGeometry>
        </mxCell>
      </root>
    </mxGraphModel>
  </diagram>
  <diagram id="iI5PkEJSZdCAQsBcdXjT" name="Page-8">
    <mxGraphModel grid="1" page="1" gridSize="10" guides="1" tooltips="1" connect="1" arrows="1" fold="1" pageScale="1" pageWidth="827" pageHeight="1169" math="0" shadow="0">
      <root>
        <mxCell id="0" />
        <mxCell id="1" parent="0" />
        <mxCell id="R7i2IbCoqQ-rUsJNBKDU-1" value="" style="shape=actor;whiteSpace=wrap;html=1;" vertex="1" parent="1">
          <mxGeometry x="120" y="160" width="60" height="80" as="geometry" />
        </mxCell>
        <mxCell id="R7i2IbCoqQ-rUsJNBKDU-2" value="&lt;b&gt;&lt;font style=&quot;font-size: 12px;&quot;&gt;Web Server&lt;/font&gt;&lt;/b&gt;" style="rounded=0;whiteSpace=wrap;html=1;direction=south;" vertex="1" parent="1">
          <mxGeometry x="280" y="100" width="120" height="220" as="geometry" />
        </mxCell>
        <mxCell id="R7i2IbCoqQ-rUsJNBKDU-3" value="&lt;b&gt;Application Layer&lt;/b&gt;" style="rounded=0;whiteSpace=wrap;html=1;direction=south;" vertex="1" parent="1">
          <mxGeometry x="460" y="100" width="120" height="220" as="geometry" />
        </mxCell>
        <mxCell id="R7i2IbCoqQ-rUsJNBKDU-4" value="&lt;b&gt;Cache Server&lt;br&gt;&lt;br&gt;&lt;/b&gt;" style="shape=cylinder3;whiteSpace=wrap;html=1;boundedLbl=1;backgroundOutline=1;size=15;" vertex="1" parent="1">
          <mxGeometry x="680" y="50" width="70" height="90" as="geometry" />
        </mxCell>
        <mxCell id="R7i2IbCoqQ-rUsJNBKDU-5" value="&lt;b&gt;DBMS&lt;br&gt;&lt;br&gt;&lt;br&gt;&lt;br&gt;&lt;br&gt;&lt;/b&gt;" style="shape=cylinder3;whiteSpace=wrap;html=1;boundedLbl=1;backgroundOutline=1;size=15;" vertex="1" parent="1">
          <mxGeometry x="650" y="210" width="130" height="140" as="geometry" />
        </mxCell>
        <mxCell id="R7i2IbCoqQ-rUsJNBKDU-6" value="" style="shape=dataStorage;whiteSpace=wrap;html=1;fixedSize=1;direction=north;" vertex="1" parent="1">
          <mxGeometry x="680" y="100" width="70" height="30" as="geometry" />
        </mxCell>
        <mxCell id="R7i2IbCoqQ-rUsJNBKDU-8" value="" style="endArrow=classic;startArrow=classic;html=1;rounded=0;exitX=1.018;exitY=0.508;exitDx=0;exitDy=0;exitPerimeter=0;" edge="1" parent="1" source="R7i2IbCoqQ-rUsJNBKDU-1">
          <mxGeometry width="50" height="50" relative="1" as="geometry">
            <mxPoint x="430" y="240" as="sourcePoint" />
            <mxPoint x="280" y="201" as="targetPoint" />
          </mxGeometry>
        </mxCell>
        <mxCell id="R7i2IbCoqQ-rUsJNBKDU-9" value="" style="endArrow=classic;startArrow=classic;html=1;rounded=0;exitX=0.5;exitY=0;exitDx=0;exitDy=0;entryX=0.5;entryY=1;entryDx=0;entryDy=0;" edge="1" parent="1">
          <mxGeometry width="50" height="50" relative="1" as="geometry">
            <mxPoint x="400" y="202" as="sourcePoint" />
            <mxPoint x="460" y="202" as="targetPoint" />
          </mxGeometry>
        </mxCell>
        <mxCell id="R7i2IbCoqQ-rUsJNBKDU-10" value="" style="endArrow=classic;html=1;rounded=0;entryX=1;entryY=0;entryDx=0;entryDy=0;exitX=0.25;exitY=0;exitDx=0;exitDy=0;" edge="1" parent="1" source="R7i2IbCoqQ-rUsJNBKDU-3" target="R7i2IbCoqQ-rUsJNBKDU-6">
          <mxGeometry width="50" height="50" relative="1" as="geometry">
            <mxPoint x="430" y="240" as="sourcePoint" />
            <mxPoint x="480" y="190" as="targetPoint" />
          </mxGeometry>
        </mxCell>
        <mxCell id="R7i2IbCoqQ-rUsJNBKDU-12" value="" style="endArrow=classic;html=1;rounded=0;entryX=0.5;entryY=1;entryDx=0;entryDy=0;entryPerimeter=0;exitX=0.5;exitY=0;exitDx=0;exitDy=0;exitPerimeter=0;" edge="1" parent="1" source="R7i2IbCoqQ-rUsJNBKDU-5" target="R7i2IbCoqQ-rUsJNBKDU-4">
          <mxGeometry width="50" height="50" relative="1" as="geometry">
            <mxPoint x="715" y="200" as="sourcePoint" />
            <mxPoint x="480" y="190" as="targetPoint" />
          </mxGeometry>
        </mxCell>
        <mxCell id="R7i2IbCoqQ-rUsJNBKDU-14" value="" style="endArrow=classic;startArrow=classic;html=1;rounded=0;exitX=0;exitY=0.5;exitDx=0;exitDy=0;exitPerimeter=0;entryX=0.668;entryY=-0.017;entryDx=0;entryDy=0;entryPerimeter=0;" edge="1" parent="1" source="R7i2IbCoqQ-rUsJNBKDU-5" target="R7i2IbCoqQ-rUsJNBKDU-3">
          <mxGeometry width="50" height="50" relative="1" as="geometry">
            <mxPoint x="430" y="240" as="sourcePoint" />
            <mxPoint x="480" y="190" as="targetPoint" />
          </mxGeometry>
        </mxCell>
        <mxCell id="R7i2IbCoqQ-rUsJNBKDU-15" value="Pharma_info" style="ellipse;whiteSpace=wrap;html=1;" vertex="1" parent="1">
          <mxGeometry x="667.5" y="300" width="95" height="40" as="geometry" />
        </mxCell>
        <mxCell id="R7i2IbCoqQ-rUsJNBKDU-16" value="" style="endArrow=classic;html=1;rounded=0;entryX=0.5;entryY=0;entryDx=0;entryDy=0;" edge="1" parent="1" target="R7i2IbCoqQ-rUsJNBKDU-15">
          <mxGeometry width="50" height="50" relative="1" as="geometry">
            <mxPoint x="715" y="270" as="sourcePoint" />
            <mxPoint x="480" y="190" as="targetPoint" />
          </mxGeometry>
        </mxCell>
        <mxCell id="R7i2IbCoqQ-rUsJNBKDU-17" value="&lt;b&gt;&lt;font style=&quot;font-size: 22px;&quot;&gt;User&lt;/font&gt;&lt;/b&gt;" style="rounded=0;whiteSpace=wrap;html=1;" vertex="1" parent="1">
          <mxGeometry x="110" y="250" width="80" height="30" as="geometry" />
        </mxCell>
        <mxCell id="R7i2IbCoqQ-rUsJNBKDU-18" value="" style="swimlane;startSize=0;" vertex="1" parent="1">
          <mxGeometry x="100" y="40" width="700" height="320" as="geometry" />
        </mxCell>
      </root>
    </mxGraphModel>
  </diagram>
</mxfile>
